<svg data-v-423bf9ae="" xmlns="http://www.w3.org/2000/svg" viewBox="0 0 440.52756661017474 60" class="font"><!----><!----><defs data-v-423bf9ae=""><linearGradient data-v-423bf9ae="" gradientTransform="rotate(25)" id="4340619f-e765-4366-a0a1-b23d07254c61" x1="0%" y1="0%" x2="100%" y2="0%"><stop data-v-423bf9ae="" offset="0%" style="stop-color: rgb(234, 31, 89); stop-opacity: 1;"></stop><stop data-v-423bf9ae="" offset="100%" style="stop-color: rgb(250, 145, 105); stop-opacity: 1;"></stop></linearGradient></defs><g data-v-423bf9ae="" id="5fd87a45-f483-44d3-a9bd-52b1b7d39622" fill="url(#4340619f-e765-4366-a0a1-b23d07254c61)" transform="matrix(4.94641341439905,0,0,4.94641341439905,-0.04946326233715581,-31.706509231535122)"><path d="M6.66 7.21L6.66 7.21Q7.24 7.59 7.56 8.20L7.56 8.20L7.56 8.20Q7.88 8.81 7.88 9.42L7.88 9.42L7.88 9.42Q7.88 10.40 7.24 11.77L7.24 11.77L4.12 18.54L0.01 8.78L1.29 8.12L4.52 16.11L6.20 12.60L6.20 12.60Q6.50 11.86 6.64 11.45L6.64 11.45L6.64 11.45Q6.78 11.05 6.78 10.65L6.78 10.65L6.78 10.65Q6.78 9.39 5.52 8.44L5.52 8.44L6.66 7.21ZM10.54 6.41L10.07 9.67L9.60 9.84L9.03 6.93L10.54 6.41ZM10.53 11.14L10.53 16.91L10.53 16.91Q10.53 17.12 10.63 17.26L10.63 17.26L10.63 17.26Q10.74 17.39 10.93 17.39L10.93 17.39L10.93 17.39Q11.09 17.39 11.28 17.25L11.28 17.25L11.28 17.25Q11.47 17.11 11.66 16.84L11.66 16.84L11.89 17.05L11.89 17.05Q11.56 17.65 11.11 17.91L11.11 17.91L11.11 17.91Q10.65 18.16 10.28 18.16L10.28 18.16L10.28 18.16Q9.77 18.16 9.50 17.84L9.50 17.84L9.50 17.84Q9.23 17.51 9.23 16.74L9.23 16.74L9.23 11.65L10.53 11.14ZM14.83 7.36L14.83 11.09L16.77 11.09L16.35 11.98L14.83 11.98L14.83 16.91L14.83 16.91Q14.83 17.12 14.95 17.26L14.95 17.26L14.95 17.26Q15.08 17.39 15.29 17.39L15.29 17.39L15.29 17.39Q15.58 17.39 16.10 16.84L16.10 16.84L16.30 17.05L16.30 17.05Q16.03 17.58 15.66 17.84L15.66 17.84L15.66 17.84Q15.29 18.10 14.96 18.17L14.96 18.17L14.96 18.17Q14.63 18.23 14.63 18.17L14.63 18.17L14.63 18.17Q14.64 18.17 14.67 18.17L14.67 18.17L14.67 18.17Q14.70 18.16 14.76 18.16L14.76 18.16L14.76 18.16Q13.52 18.16 13.52 16.74L13.52 16.74L13.52 11.98L12.47 11.98L12.91 11.09L13.52 11.09L13.52 7.87L14.83 7.36ZM21.35 11.09L21.35 11.09Q22.04 11.09 22.64 11.38L22.64 11.38L22.64 11.38Q23.25 11.68 23.53 12.28L23.53 12.28L22.53 12.82L22.53 12.82Q22.30 12.50 21.91 12.24L21.91 12.24L21.91 12.24Q21.52 11.98 21.07 11.98L21.07 11.98L21.07 11.98Q20.36 11.98 19.82 12.36L19.82 12.36L19.82 12.36Q19.29 12.73 19.01 13.36L19.01 13.36L19.01 13.36Q18.73 13.99 18.73 14.76L18.73 14.76L18.73 14.76Q18.73 15.86 19.11 16.55L19.11 16.55L19.11 16.55Q19.49 17.25 20.30 17.25L20.30 17.25L20.30 17.25Q21.45 17.25 21.88 16.32L21.88 16.32L21.88 16.32Q22.32 15.40 22.32 14.31L22.32 14.31L22.32 13.68L23.55 13.16L23.55 16.84L23.55 16.84Q23.55 17.02 23.65 17.19L23.65 17.19L23.65 17.19Q23.74 17.36 23.94 17.36L23.94 17.36L23.94 17.36Q24.35 17.36 24.68 16.80L24.68 16.80L24.89 17.02L24.89 17.02Q24.72 17.50 24.30 17.83L24.30 17.83L24.30 17.83Q23.88 18.16 23.46 18.16L23.46 18.16L23.46 18.16Q22.86 18.16 22.57 17.71L22.57 17.71L22.57 17.71Q22.29 17.26 22.29 16.52L22.29 16.52L22.26 16.52L22.26 16.52Q21.91 17.26 21.32 17.76L21.32 17.76L21.32 17.76Q20.72 18.26 20.06 18.26L20.06 18.26L20.06 18.26Q18.87 18.26 18.26 17.44L18.26 17.44L18.26 17.44Q17.65 16.62 17.65 15.25L17.65 15.25L17.65 15.25Q17.65 14.15 18.14 13.20L18.14 13.20L18.14 13.20Q18.63 12.24 19.48 11.66L19.48 11.66L19.48 11.66Q20.33 11.09 21.35 11.09L21.35 11.09ZM33.31 10.96L33.31 10.96Q33.73 10.96 33.96 11.24L33.96 11.24L33.96 11.24Q34.19 11.51 34.19 12.15L34.19 12.15L34.19 16.91L34.19 16.91Q34.19 17.12 34.29 17.26L34.29 17.26L34.29 17.26Q34.38 17.39 34.55 17.39L34.55 17.39L34.55 17.39Q34.72 17.39 34.92 17.25L34.92 17.25L34.92 17.25Q35.11 17.11 35.29 16.84L35.29 16.84L35.52 17.05L35.52 17.05Q35.22 17.68 34.82 17.93L34.82 17.93L34.82 17.93Q34.41 18.17 34.66 18.17L34.66 18.17L34.66 18.17Q34.92 18.16 34.06 18.16L34.06 18.16L34.06 18.16Q32.90 18.16 32.90 16.74L32.90 16.74L32.90 12.88L32.90 12.88Q32.90 12.74 32.83 12.64L32.83 12.64L32.83 12.64Q32.76 12.54 32.65 12.54L32.65 12.54L32.65 12.54Q32.34 12.54 31.98 13.22L31.98 13.22L31.98 13.22Q31.61 13.89 31.36 15.11L31.36 15.11L31.36 15.11Q31.11 16.34 31.11 17.92L31.11 17.92L29.83 18.28L29.83 12.88L29.83 12.88Q29.83 12.74 29.76 12.64L29.76 12.64L29.76 12.64Q29.69 12.54 29.60 12.54L29.60 12.54L29.60 12.54Q29.32 12.54 28.95 13.22L28.95 13.22L28.95 13.22Q28.57 13.90 28.30 15.13L28.30 15.13L28.30 15.13Q28.03 16.35 28.03 17.92L28.03 17.92L26.82 18.28L26.82 12.29L26.82 12.29Q26.82 12.05 26.71 11.91L26.71 11.91L26.71 11.91Q26.59 11.77 26.40 11.77L26.40 11.77L26.40 11.77Q26.05 11.77 25.69 12.38L25.69 12.38L25.47 12.15L25.47 12.15Q25.76 11.52 26.17 11.25L26.17 11.25L26.17 11.25Q26.57 10.98 26.66 10.97L26.66 10.97L26.66 10.97Q26.75 10.96 26.94 10.96L26.94 10.96L26.94 10.96Q27.61 10.96 27.85 11.25L27.85 11.25L27.85 11.25Q28.08 11.54 28.08 12.01L28.08 12.01L28.08 14.35L28.13 14.35L28.13 14.35Q28.48 12.82 29.07 11.89L29.07 11.89L29.07 11.89Q29.67 10.96 30.25 10.96L30.25 10.96L30.25 10.96Q30.69 10.96 30.91 11.23L30.91 11.23L30.91 11.23Q31.12 11.49 31.12 12.15L31.12 12.15L31.12 14.35L31.21 14.35L31.21 14.35Q31.56 12.82 32.14 11.89L32.14 11.89L32.14 11.89Q32.72 10.96 33.31 10.96L33.31 10.96ZM38.49 6.41L38.01 9.67L37.55 9.84L36.97 6.93L38.49 6.41ZM38.47 11.14L38.47 16.91L38.47 16.91Q38.47 17.12 38.58 17.26L38.58 17.26L38.58 17.26Q38.68 17.39 38.88 17.39L38.88 17.39L38.88 17.39Q39.03 17.39 39.22 17.25L39.22 17.25L39.22 17.25Q39.41 17.11 39.61 16.84L39.61 16.84L39.83 17.05L39.83 17.05Q39.51 17.65 39.05 17.91L39.05 17.91L39.05 17.91Q38.60 18.16 38.22 18.16L38.22 18.16L38.22 18.16Q37.72 18.16 37.44 17.84L37.44 17.84L37.44 17.84Q37.17 17.51 37.17 16.74L37.17 16.74L37.17 11.65L38.47 11.14ZM46.13 10.96L46.13 10.96Q46.69 10.96 46.86 11.38L46.86 11.38L46.86 11.38Q47.03 11.79 47.03 12.52L47.03 12.52L47.03 12.95L47.03 16.91L47.03 16.91Q47.03 17.07 47.12 17.23L47.12 17.23L47.12 17.23Q47.22 17.39 47.40 17.39L47.40 17.39L47.40 17.39Q47.64 17.39 47.81 17.23L47.81 17.23L47.81 17.23Q47.98 17.08 48.15 16.84L48.15 16.84L48.36 17.05L48.36 17.05Q48.15 17.50 47.73 17.83L47.73 17.83L47.73 17.83Q47.31 18.16 46.93 18.16L46.93 18.16L46.93 18.16Q46.37 18.16 46.06 17.81L46.06 17.81L46.06 17.81Q45.75 17.46 45.75 16.74L45.75 16.74L45.75 13.03L45.75 13.03Q45.75 12.82 45.71 12.68L45.71 12.68L45.71 12.68Q45.67 12.54 45.50 12.54L45.50 12.54L45.50 12.54Q44.93 12.54 44.32 13.65L44.32 13.65L44.32 13.65Q43.72 14.76 43.29 16.12L43.29 16.12L43.29 16.12Q42.87 17.49 42.87 17.92L42.87 17.92L41.65 18.28L41.65 12.29L41.65 12.29Q41.65 12.10 41.54 11.94L41.54 11.94L41.54 11.94Q41.44 11.77 41.24 11.77L41.24 11.77L41.24 11.77Q40.91 11.77 40.52 12.38L40.52 12.38L40.31 12.15L40.31 12.15Q40.49 11.65 40.91 11.30L40.91 11.30L40.91 11.30Q41.33 10.96 41.75 10.96L41.75 10.96L41.75 10.96Q42.34 10.96 42.62 11.24L42.62 11.24L42.62 11.24Q42.91 11.52 42.91 12.01L42.91 12.01L42.91 15.69L42.97 15.69L42.97 15.69Q43.34 14.45 43.69 13.52L43.69 13.52L43.69 13.52Q44.04 12.60 44.67 11.78L44.67 11.78L44.67 11.78Q45.30 10.96 46.13 10.96L46.13 10.96ZM55.82 7.90L55.82 7.90Q56.76 7.90 57.60 8.32L57.60 8.32L57.60 8.32Q58.44 8.75 59.01 9.53L59.01 9.53L57.92 10.88L57.92 10.88Q57.57 9.90 56.88 9.25L56.88 9.25L56.88 9.25Q56.18 8.61 55.23 8.61L55.23 8.61L55.23 8.61Q54.32 8.61 53.82 9.13L53.82 9.13L53.82 9.13Q53.31 9.65 53.31 10.46L53.31 10.46L53.31 10.46Q53.31 11.21 53.68 11.72L53.68 11.72L53.68 11.72Q54.04 12.22 54.56 12.53L54.56 12.53L54.56 12.53Q55.08 12.84 55.96 13.23L55.96 13.23L55.96 13.23Q56.80 13.61 57.28 13.89L57.28 13.89L57.28 13.89Q57.76 14.17 58.10 14.62L58.10 14.62L58.10 14.62Q58.44 15.06 58.44 15.72L58.44 15.72L58.44 15.72Q58.45 16.94 57.65 17.60L57.65 17.60L57.65 17.60Q56.85 18.26 55.58 18.26L55.58 18.26L55.58 18.26Q54.64 18.26 53.79 17.89L53.79 17.89L53.79 17.89Q52.95 17.51 52.44 16.76L52.44 16.76L53.54 15.54L53.54 15.54Q54.01 16.66 54.70 17.13L54.70 17.13L54.70 17.13Q55.38 17.60 56.03 17.60L56.03 17.60L56.03 17.60Q56.63 17.60 57.06 17.27L57.06 17.27L57.06 17.27Q57.48 16.94 57.48 16.41L57.48 16.41L57.48 16.41Q57.48 15.92 57.18 15.55L57.18 15.55L57.18 15.55Q56.88 15.18 56.43 14.92L56.43 14.92L56.43 14.92Q55.99 14.66 55.22 14.31L55.22 14.31L55.22 14.31Q54.24 13.86 53.65 13.50L53.65 13.50L53.65 13.50Q53.06 13.13 52.64 12.54L52.64 12.54L52.64 12.54Q52.22 11.94 52.22 11.09L52.22 11.09L52.22 11.09Q52.22 10.19 52.69 9.46L52.69 9.46L52.69 9.46Q53.16 8.72 53.98 8.31L53.98 8.31L53.98 8.31Q54.81 7.90 55.82 7.90L55.82 7.90ZM65.72 10.89L65.72 16.87L65.72 16.87Q65.72 17.08 65.82 17.21L65.82 17.21L65.82 17.21Q65.93 17.35 66.12 17.35L66.12 17.35L66.12 17.35Q66.42 17.35 66.84 16.80L66.84 16.80L67.05 17.01L67.05 17.01Q66.75 17.64 66.34 17.90L66.34 17.90L66.34 17.90Q65.93 18.16 65.93 18.16L65.93 18.16L65.93 18.16Q65.93 18.16 65.56 18.16L65.56 18.16L65.56 18.16Q65.11 18.16 64.88 17.91L64.88 17.91L64.88 17.91Q64.65 17.65 64.55 17.00L64.55 17.00L64.55 17.00Q64.46 16.35 64.46 15.06L64.46 15.06L64.46 15.06Q64.46 14.29 64.47 13.83L64.47 13.83L64.36 13.55L64.32 13.55L64.32 13.55Q63.95 15.27 63.30 16.77L63.30 16.77L63.30 16.77Q62.65 18.26 61.45 18.26L61.45 18.26L61.45 18.26Q61.00 18.26 60.79 18.03L60.79 18.03L60.79 18.03Q60.59 17.81 60.55 17.42L60.55 17.42L60.55 17.42Q60.51 17.04 60.51 16.24L60.51 16.24L60.51 12.29L60.51 12.29Q60.51 12.05 60.40 11.91L60.40 11.91L60.40 11.91Q60.30 11.77 60.12 11.77L60.12 11.77L60.12 11.77Q59.78 11.77 59.36 12.33L59.36 12.33L59.19 12.11L59.19 12.11Q59.42 11.58 59.76 11.32L59.76 11.32L59.76 11.32Q60.10 11.06 60.40 11.00L60.40 11.00L60.40 11.00Q60.70 10.93 60.70 10.98L60.70 10.98L60.70 10.98Q60.69 10.98 60.66 10.98L60.66 10.98L60.66 10.98Q60.63 10.99 60.58 10.99L60.58 10.99L60.58 10.99Q61.78 10.99 61.78 12.38L61.78 12.38L61.78 16.41L61.78 16.41Q61.78 16.72 61.85 16.85L61.85 16.85L61.85 16.85Q61.92 16.98 62.02 16.98L62.02 16.98L62.02 16.98Q62.62 16.98 63.14 15.81L63.14 15.81L63.14 15.81Q63.66 14.63 63.99 13.22L63.99 13.22L63.99 13.22Q64.32 11.80 64.32 11.52L64.32 11.52L65.72 10.89ZM69.97 10.51L69.97 10.51Q70.45 10.51 70.66 10.68L70.66 10.68L70.66 10.68Q70.88 10.85 70.88 11.20L70.88 11.20L70.88 11.20Q70.88 11.58 70.73 11.87L70.73 11.87L70.73 11.87Q70.59 12.17 70.42 12.38L70.42 12.38L70.42 12.38Q70.25 12.59 70.20 12.67L70.20 12.67L70.20 12.67Q70.36 12.95 70.83 13.33L70.83 13.33L70.83 13.33Q71.20 13.65 71.43 13.90L71.43 13.90L71.43 13.90Q71.65 14.15 71.81 14.58L71.81 14.58L71.81 14.58Q71.97 15.01 71.97 15.62L71.97 15.62L71.97 15.62Q71.97 16.35 71.64 16.95L71.64 16.95L71.64 16.95Q71.32 17.56 70.73 17.91L70.73 17.91L70.73 17.91Q70.15 18.26 69.43 18.26L69.43 18.26L69.43 18.26Q68.98 18.26 68.45 18.07L68.45 18.07L68.45 18.07Q67.91 17.88 67.66 17.53L67.66 17.53L68.60 16.28L68.60 16.28Q68.94 16.72 69.31 17.02L69.31 17.02L69.31 17.02Q69.68 17.33 70.11 17.33L70.11 17.33L70.11 17.33Q70.71 17.33 71.14 16.93L71.14 16.93L71.14 16.93Q71.57 16.53 71.57 15.97L71.57 15.97L71.57 15.97Q71.57 15.53 71.20 15.09L71.20 15.09L71.20 15.09Q70.83 14.64 70.15 14.04L70.15 14.04L70.15 14.04Q70.07 13.97 69.83 13.76L69.83 13.76L69.83 13.76Q69.59 13.54 69.48 13.40L69.48 13.40L68.50 14.84L68.05 14.55L69.17 12.99L69.17 12.99Q68.98 12.45 68.98 11.91L68.98 11.91L68.98 11.91Q68.98 11.31 69.24 10.91L69.24 10.91L69.24 10.91Q69.51 10.51 69.97 10.51L69.97 10.51ZM69.97 11.06L69.97 11.06Q69.79 11.06 69.74 11.16L69.74 11.16L69.74 11.16Q69.69 11.26 69.69 11.45L69.69 11.45L69.69 11.45Q69.69 11.70 69.76 11.89L69.76 11.89L69.76 11.89Q69.83 12.07 69.86 12.14L69.86 12.14L69.86 12.14Q70.01 12.04 70.15 11.78L70.15 11.78L70.15 11.78Q70.28 11.52 70.28 11.34L70.28 11.34L70.28 11.34Q70.28 11.21 70.20 11.14L70.20 11.14L70.20 11.14Q70.13 11.06 69.97 11.06L69.97 11.06ZM75.35 10.51L75.35 10.51Q75.82 10.51 76.04 10.68L76.04 10.68L76.04 10.68Q76.26 10.85 76.26 11.20L76.26 11.20L76.26 11.20Q76.26 11.58 76.11 11.87L76.11 11.87L76.11 11.87Q75.96 12.17 75.80 12.38L75.80 12.38L75.80 12.38Q75.63 12.59 75.57 12.67L75.57 12.67L75.57 12.67Q75.74 12.95 76.20 13.33L76.20 13.33L76.20 13.33Q76.58 13.65 76.80 13.90L76.80 13.90L76.80 13.90Q77.03 14.15 77.19 14.58L77.19 14.58L77.19 14.58Q77.35 15.01 77.35 15.62L77.35 15.62L77.35 15.62Q77.35 16.35 77.02 16.95L77.02 16.95L77.02 16.95Q76.69 17.56 76.11 17.91L76.11 17.91L76.11 17.91Q75.53 18.26 74.80 18.26L74.80 18.26L74.80 18.26Q74.35 18.26 73.82 18.07L73.82 18.07L73.82 18.07Q73.29 17.88 73.04 17.53L73.04 17.53L73.98 16.28L73.98 16.28Q74.31 16.72 74.68 17.02L74.68 17.02L74.68 17.02Q75.05 17.33 75.49 17.33L75.49 17.33L75.49 17.33Q76.09 17.33 76.52 16.93L76.52 16.93L76.52 16.93Q76.94 16.53 76.94 15.97L76.94 15.97L76.94 15.97Q76.94 15.53 76.57 15.09L76.57 15.09L76.57 15.09Q76.20 14.64 75.53 14.04L75.53 14.04L75.53 14.04Q75.45 13.97 75.21 13.76L75.21 13.76L75.21 13.76Q74.97 13.54 74.86 13.40L74.86 13.40L73.88 14.84L73.43 14.55L74.55 12.99L74.55 12.99Q74.35 12.45 74.35 11.91L74.35 11.91L74.35 11.91Q74.35 11.31 74.62 10.91L74.62 10.91L74.62 10.91Q74.89 10.51 75.35 10.51L75.35 10.51ZM75.35 11.06L75.35 11.06Q75.17 11.06 75.12 11.16L75.12 11.16L75.12 11.16Q75.07 11.26 75.07 11.45L75.07 11.45L75.07 11.45Q75.07 11.70 75.14 11.89L75.14 11.89L75.14 11.89Q75.21 12.07 75.24 12.14L75.24 12.14L75.24 12.14Q75.39 12.04 75.52 11.78L75.52 11.78L75.52 11.78Q75.66 11.52 75.66 11.34L75.66 11.34L75.66 11.34Q75.66 11.21 75.58 11.14L75.58 11.14L75.58 11.14Q75.50 11.06 75.35 11.06L75.35 11.06ZM80.56 6.41L80.08 9.67L79.62 9.84L79.04 6.93L80.56 6.41ZM80.54 11.14L80.54 16.91L80.54 16.91Q80.54 17.12 80.65 17.26L80.65 17.26L80.65 17.26Q80.75 17.39 80.95 17.39L80.95 17.39L80.95 17.39Q81.10 17.39 81.29 17.25L81.29 17.25L81.29 17.25Q81.48 17.11 81.68 16.84L81.68 16.84L81.90 17.05L81.90 17.05Q81.58 17.65 81.12 17.91L81.12 17.91L81.12 17.91Q80.67 18.16 80.29 18.16L80.29 18.16L80.29 18.16Q79.79 18.16 79.51 17.84L79.51 17.84L79.51 17.84Q79.24 17.51 79.24 16.74L79.24 16.74L79.24 11.65L80.54 11.14ZM86.76 10.96L86.76 10.96Q87.51 10.96 88.02 11.37L88.02 11.37L88.02 11.37Q88.52 11.77 88.52 12.57L88.52 12.57L88.52 12.57Q88.52 13.22 87.83 14.01L87.83 14.01L87.83 14.01Q87.14 14.80 86.21 15.46L86.21 15.46L86.21 15.46Q85.27 16.11 84.62 16.38L84.62 16.38L84.62 16.38Q84.97 16.94 85.41 17.16L85.41 17.16L85.41 17.16Q85.86 17.37 86.46 17.37L86.46 17.37L86.46 17.37Q87.14 17.37 87.80 17.03L87.80 17.03L87.80 17.03Q88.47 16.69 88.90 16.14L88.90 16.14L89.07 16.44L89.07 16.44Q88.38 17.32 87.61 17.79L87.61 17.79L87.61 17.79Q86.84 18.26 85.72 18.26L85.72 18.26L85.72 18.26Q84.87 18.26 84.20 17.84L84.20 17.84L84.20 17.84Q83.52 17.42 83.15 16.71L83.15 16.71L83.15 16.71Q82.77 16.00 82.77 15.18L82.77 15.18L82.77 15.18Q82.77 14.14 83.33 13.16L83.33 13.16L83.33 13.16Q83.89 12.18 84.81 11.57L84.81 11.57L84.81 11.57Q85.74 10.96 86.76 10.96L86.76 10.96ZM86.03 11.84L86.03 11.84Q85.41 11.84 84.93 12.24L84.93 12.24L84.93 12.24Q84.45 12.63 84.18 13.24L84.18 13.24L84.18 13.24Q83.90 13.86 83.90 14.52L83.90 14.52L83.90 14.52Q83.90 15.39 84.31 16.00L84.31 16.00L84.31 16.00Q84.90 15.74 85.58 15.20L85.58 15.20L85.58 15.20Q86.27 14.66 86.74 14.03L86.74 14.03L86.74 14.03Q87.22 13.40 87.22 12.88L87.22 12.88L87.22 12.88Q87.22 11.84 86.03 11.84L86.03 11.84Z"></path></g><!----><!----></svg>